HIERARCHY
ROOT Hips
{
	OFFSET 0.00000 0.00000 0.00000
	CHANNELS 6 Xposition Yposition Zposition Zrotation Yrotation Xrotation 
	JOINT LHipJoint
	{
		OFFSET 0 0 0
		CHANNELS 3 Zrotation Yrotation Xrotation
		JOINT LeftHip
		{
			OFFSET 1.34019 -1.87553 0.90315
			CHANNELS 3 Zrotation Yrotation Xrotation
			JOINT LeftKnee
			{
				OFFSET 2.55316 -7.01474 0.00000
				CHANNELS 3 Zrotation Yrotation Xrotation
				JOINT LeftAnkle
				{
					OFFSET 2.64657 -7.27139 0.00000
					CHANNELS 3 Zrotation Yrotation Xrotation
					JOINT LeftToe
					{
						OFFSET 0.24207 -0.66507 2.14489
						CHANNELS 3 Zrotation Yrotation Xrotation
						End Site
						{
							OFFSET 0.00000 -0.00000 1.12451
						}
					}
				}
			}
		}
	}
	JOINT RHipJoint
	{
		OFFSET 0 0 0
		CHANNELS 3 Zrotation Yrotation Xrotation
		JOINT RightHip
		{
			OFFSET -1.28320 -1.87553 0.90315
			CHANNELS 3 Zrotation Yrotation Xrotation
			JOINT RightKnee
			{
				OFFSET -2.60484 -7.15674 0.00000
				CHANNELS 3 Zrotation Yrotation Xrotation
				JOINT RightAnkle
				{
					OFFSET -2.60296 -7.15159 0.00000
					CHANNELS 3 Zrotation Yrotation Xrotation
					JOINT RightToe
					{
						OFFSET -0.31082 -0.85398 2.28998
						CHANNELS 3 Zrotation Yrotation Xrotation
						End Site
						{
							OFFSET -0.00000 -0.00000 1.21611
						}
					}
				}
			}
		}
	}
	JOINT lowerback
	{
		OFFSET 0 0 0
		CHANNELS 3 Zrotation Yrotation Xrotation
		JOINT Chest
		{
			OFFSET -0.00160 2.05581 -0.15156
			CHANNELS 3 Zrotation Yrotation Xrotation
			JOINT Chest2
			{
				OFFSET 0.04594 2.06326 -0.01617
				CHANNELS 3 Zrotation Yrotation Xrotation
				JOINT lowerneck
				{
					OFFSET 0 0 0
					CHANNELS 3 Zrotation Yrotation Xrotation
					JOINT Neck
					{
						OFFSET 0.03753 1.73883 0.26751
						CHANNELS 3 Zrotation Yrotation Xrotation
						JOINT Head
						{
							OFFSET -0.09795 1.76129 -0.31794
							CHANNELS 3 Zrotation Yrotation Xrotation
							End Site
							{
								OFFSET -0.03611 1.79987 -0.13846
							}
						}
					}
				}
				JOINT LeftCollar
				{
					OFFSET 0 0 0
					CHANNELS 3 Zrotation Yrotation Xrotation
					JOINT LeftShoulder
					{
						OFFSET 3.30667 1.29205 -0.22445
CHANNELS 3 Zrotation Xrotation Yrotation
						JOINT LeftElbow
						{
OFFSET 0 -4.927850 -0.000000
CHANNELS 3 Zrotation Xrotation Yrotation
							JOINT LeftWrist
							{
OFFSET 0 -3.440520 0.000000
CHANNELS 3 Zrotation Xrotation Yrotation
								JOINT lhand
								{
									OFFSET 0 0 0
CHANNELS 3 Zrotation Xrotation Yrotation
									JOINT LFingers
									{
OFFSET 0 -0.654330 0.000000
CHANNELS 3 Zrotation Xrotation Yrotation
										End Site
										{
OFFSET 0 -0.527530 0.000000
										}
									}
								}
								JOINT LThumb
								{
OFFSET 0 0.000000 0.000000
CHANNELS 3 Zrotation Xrotation Yrotation
									End Site
									{
OFFSET 0 -0.535590 0.535590
									}
								}
							}
						}
					}
				}
				JOINT RightCollar
				{
					OFFSET 0 0 0
					CHANNELS 3 Zrotation Yrotation Xrotation
					JOINT RightShoulder
					{
						OFFSET -3.20032 1.49783 -0.27688
CHANNELS 3 Zrotation Xrotation Yrotation
						JOINT RightElbow
						{
OFFSET 0 -5.091810 -0.000000
CHANNELS 3 Zrotation Xrotation Yrotation
							JOINT RightWrist
							{
OFFSET 0 -3.498650 -0.000000
CHANNELS 3 Zrotation Xrotation Yrotation
								JOINT rhand
								{
									OFFSET 0 0 0
CHANNELS 3 Zrotation Xrotation Yrotation
									JOINT RFingers
									{
OFFSET 0 -0.666410 0.000000
CHANNELS 3 Zrotation Xrotation Yrotation
										End Site
										{
OFFSET 0 -0.537280 0.000000
										}
									}
								}
								JOINT RThumb
								{
OFFSET 0 0.000000 0.000000
CHANNELS 3 Zrotation Xrotation Yrotation
									End Site
									{
OFFSET 0 -0.545480 0.545480
									}
								}
							}
						}
					}
				}
			}
		}
	}
}
MOTION
Frames: 4
Frame Time: 0.008333333333333333
-0.249129 18.104000 -1.165548 -7.663318 8.935396 -0.952889 0.000000 0.000000 0.000000 -6.023139 -8.739184 -28.977938 2.962354 10.633747 31.054649 0.069904 5.773934 -9.995093 0.978204 -6.295830 -17.645256 0.000000 0.000000 0.000000 35.100646 -6.952093 3.118061 -0.469369 -4.394076 12.187952 0.263953 -12.911764 -14.531574 -0.035429 1.215569 -3.342111 6.241496 2.381005 4.336550 2.999890 3.613962 -0.732270 -0.633504 1.717827 -3.002817 4.369515 -0.927188 -14.381077 -5.605215 -0.947946 23.188796 -2.807109 -0.674540 9.643334 0.000000 0.000000 0.000000 6.042125 15.327583 -28.578393 22.804697 -33.874535 7.029099 14.328820 -14.984713 1.086503 0.000000 0.000000 0.000000 -7.125000 0.000000 0.000000 -9.509843 28.802727 -3.799253 0.000000 0.000000 0.000000 -4.545738 4.407926 17.701192 -20.136323 -30.806227 -5.601022 -17.016342 -7.661488 3.136955 0.000000 0.000000 0.000000 7.125000 0.000000 0.000000 7.801524 33.187605 2.276585
-0.236451 18.103700 -1.054058 -7.913734 9.022422 -1.016297 0.000000 0.000000 0.000000 -6.332103 -8.294849 -29.510219 2.637448 10.083402 29.247553 0.069463 5.800299 -10.017994 0.952339 -6.214593 -17.408192 0.000000 0.000000 0.000000 35.348411 -7.272325 4.125925 -0.376207 -3.938935 10.904998 0.317234 -13.114939 -13.961082 -0.039712 1.286832 -3.538285 6.379992 2.523540 4.290017 3.068483 3.812874 -0.781559 -0.649800 1.814006 -3.013212 4.220973 -1.046993 -14.262418 -5.478459 -1.105329 23.169563 -2.753916 -0.744596 9.607076 0.000000 0.000000 0.000000 6.016979 15.744757 -28.163233 22.585502 -33.632428 6.907370 14.253816 -14.894479 1.033986 0.000000 0.000000 0.000000 -7.125000 0.000000 0.000000 -9.572459 28.855902 -3.812739 0.000000 0.000000 0.000000 -4.379010 3.906098 16.773598 -20.062731 -30.717845 -5.563390 -17.399362 -7.827122 3.016362 0.000000 0.000000 0.000000 7.125000 0.000000 0.000000 7.479571 33.074849 2.201779
-0.218456 18.105233 -0.937289 -8.083098 9.058105 -1.042701 0.000000 0.000000 0.000000 -6.596118 -8.301183 -29.687236 2.329582 9.520781 27.438763 0.055777 6.230900 -10.237251 0.945544 -6.193045 -17.345666 0.000000 0.000000 0.000000 35.447630 -7.739271 5.218094 -0.279861 -3.401767 9.399541 0.358230 -13.156613 -13.249054 -0.046537 1.392132 -3.828362 6.447460 2.658187 4.187636 3.105414 3.990519 -0.822741 -0.654765 1.901780 -2.986905 4.202246 -1.101753 -14.229311 -5.433024 -1.185462 23.199425 -2.744501 -0.777355 9.607265 0.000000 0.000000 0.000000 5.992625 16.168777 -27.775358 22.426196 -33.455278 6.819316 14.192766 -14.880690 0.892356 0.000000 0.000000 0.000000 -7.125000 0.000000 0.000000 -9.632652 28.999565 -3.803969 0.000000 0.000000 0.000000 -4.221983 3.403096 15.975845 -19.962168 -30.596700 -5.512078 -17.572548 -7.942289 2.818916 0.000000 0.000000 0.000000 7.125000 0.000000 0.000000 7.319965 32.874934 2.189707
-0.197279 18.107825 -0.819049 -8.207130 9.062226 -0.986312 0.000000 0.000000 0.000000 -6.726258 -8.805057 -29.618568 2.044207 8.957013 25.661391 0.031088 7.008957 -10.699136 0.965289 -6.255432 -17.527264 0.000000 0.000000 0.000000 35.455543 -8.253156 6.278917 -0.192993 -2.827397 7.798765 0.384196 -13.057250 -12.477326 -0.054157 1.501772 -4.130638 6.480953 2.816444 4.011198 3.107842 4.190771 -0.880919 -0.673601 2.001521 -2.934736 4.284518 -1.167665 -14.153873 -5.431538 -1.295095 23.199186 -2.769606 -0.819722 9.585861 0.000000 0.000000 0.000000 6.011227 16.563804 -27.473868 22.253395 -33.262177 6.724263 14.134497 -14.920262 1.003032 0.000000 0.000000 0.000000 -7.125000 0.000000 0.000000 -9.667411 28.886702 -3.844327 0.000000 0.000000 0.000000 -4.068283 2.921036 15.319224 -19.851703 -30.463257 -5.455989 -17.549880 -7.892179 2.711456 0.000000 0.000000 0.000000 7.125000 0.000000 0.000000 7.327681 32.762578 2.212113
